<svg width="1808" height="230" xmlns="http://www.w3.org/2000/svg">
  <path d="M904 -46 L-3616 230 M904 -46 L-3254.4 230 M904 -46 L-2892.8 230 M904 -46 L-2531.2000000000003 230 M904 -46 L-2169.6000000000004 230 M904 -46 L-1808 230 M904 -46 L-1446.4 230 M904 -46 L-1084.8000000000002 230 M904 -46 L-723.2 230 M904 -46 L-361.6 230 M904 -46 L0 230 M904 -46 L361.6 230 M904 -46 L723.2 230 M904 -46 L1084.8000000000002 230 M904 -46 L1446.4 230 M904 -46 L1808 230 M904 -46 L2169.6000000000004 230 M904 -46 L2531.2000000000003 230 M904 -46 L2892.8 230 M904 -46 L3254.4 230 M904 -46 L3616 230 M904 -46 L3977.6000000000004 230 M904 -46 L4339.200000000001 230 M904 -46 L4700.8 230 M904 -46 L5062.400000000001 230 M904 -46 L5424 230"
        stroke="hsl(217, 91%, 60%)"
        stroke-width="2"
        vector-effect="non-scaling-stroke" />
</svg>